# xmcd CD database file
#
# Track frame offsets:
#	150
#	25772
#	46377
#	72599
#	97323
#	118172
#	146981
#	169632
#	191139
#	216377
#	249371
#	266158
#	282111
#
# Disc length: 4044 seconds
#
# Revision: 0
# Processed by: cddbd v1.5.2PL0 Copyright (c) Steve Scherf et al.
# Submitted via: CDex 1.50
#
DISCID=d40fca0d
DTITLE=Zucchero - Live in Chile 1997
DYEAR=1997
DGENRE=Blues
TTITLE0=Il Volo
TTITLE1=Papà Perche
TTITLE2=Eppure non T'amo
TTITLE3=Overdose (d'amore)
TTITLE4=Il Mare...
TTITLE5=Menta y Romero
TTITLE6=Senza una Donna
TTITLE7=Con le Mani
TTITLE8=Diavolo in Me
TTITLE9=Così Celeste
TTITLE10=Chicas
TTITLE11=X Colpa di chi?
TTITLE12=Hai Scelto me
EXTD=YEAR: 1997
EXTT0=
EXTT1=
EXTT2=
EXTT3=
EXTT4=
EXTT5=
EXTT6=
EXTT7=
EXTT8=
EXTT9=
EXTT10=
EXTT11=
EXTT12=
PLAYORDER=
